<svg width="25" height="21" viewBox="0 0 25 21" fill="none" xmlns="http://www.w3.org/2000/svg">
<path d="M24.2813 3.20181C23.4147 3.57563 22.4716 3.84468 21.5002 3.94946C22.5087 3.35031 23.264 2.40374 23.6242 1.28735C22.6779 1.85033 21.6411 2.2451 20.56 2.45415C20.1081 1.97108 19.5616 1.58625 18.9545 1.32362C18.3474 1.061 17.6927 0.926224 17.0313 0.927685C14.355 0.927685 12.2027 3.09702 12.2027 5.75913C12.2027 6.13296 12.248 6.50679 12.3216 6.86645C8.31428 6.65688 4.74026 4.74243 2.36418 1.81128C1.93124 2.55077 1.70436 3.39276 1.70715 4.24966C1.70715 5.92622 2.55959 7.40454 3.8595 8.27397C3.09344 8.2438 2.34533 8.03325 1.676 7.65942V7.71889C1.676 10.0666 3.33557 12.0123 5.54739 12.4597C5.13209 12.5676 4.70488 12.6228 4.2758 12.624C3.96145 12.624 3.66409 12.5928 3.36389 12.5503C3.97561 14.4648 5.75696 15.8553 7.87815 15.9006C6.21858 17.2005 4.13987 17.9652 1.88274 17.9652C1.47776 17.9652 1.10393 17.951 0.715942 17.9057C2.85696 19.2792 5.39729 20.0722 8.13303 20.0722C17.0143 20.0722 21.874 12.7146 21.874 6.32837C21.874 6.1188 21.874 5.90923 21.8599 5.69966C22.8001 5.01147 23.6242 4.15903 24.2813 3.20181Z" fill="white"/>
</svg>
